<svg width="226" height="62" viewBox="0 0 226 62" fill="none" xmlns="http://www.w3.org/2000/svg">
<mask id="mask0_1207_928" style="mask-type:luminance" maskUnits="userSpaceOnUse" x="0" y="0" width="226" height="62">
<path d="M225.763 0H0V61.9267H225.763V0Z" fill="white"/>
</mask>
<g mask="url(#mask0_1207_928)">
<path d="M89.1828 30.2305V47.8859C89.1828 48.5416 88.6542 49.0732 88.0022 49.0732H85.1256C84.4736 49.0732 83.9451 48.5416 83.9451 47.8859V30.2305C83.9451 29.8558 84.2483 29.5508 84.6209 29.5508H88.5091C88.8817 29.5508 89.1849 29.8558 89.1849 30.2305" fill="white"/>
<path d="M89.462 24.2827C89.462 25.0495 89.1804 25.6966 88.6172 26.2282C88.054 26.7576 87.3695 27.0233 86.5594 27.0233C85.7492 27.0233 85.0626 26.7576 84.4929 26.2282C83.9254 25.6966 83.6416 25.0495 83.6416 24.2827C83.6416 23.5158 83.9254 22.8688 84.4929 22.3372C85.0604 21.8078 85.7427 21.542 86.5421 21.542C87.3414 21.542 88.054 21.8078 88.6172 22.3372C89.1804 22.8688 89.462 23.518 89.462 24.2827Z" fill="white"/>
<path d="M83.9425 30.2302V47.8856C83.9425 48.5414 84.471 49.0729 85.123 49.0729H87.9996C88.6517 49.0729 89.1802 48.5414 89.1802 47.8856V30.2302C89.1802 29.8555 88.8769 29.5505 88.5044 29.5505H84.6161C84.2436 29.5505 83.9403 29.8555 83.9403 30.2302M88.6192 22.3372C88.056 21.8078 87.365 21.542 86.544 21.542C85.723 21.542 85.0645 21.8078 84.4948 22.3372C83.9273 22.8688 83.6436 23.518 83.6436 24.2827C83.6436 25.0474 83.9273 25.6966 84.4948 26.2282C85.0624 26.7576 85.7512 27.0233 86.5613 27.0233C87.3715 27.0233 88.056 26.7576 88.6192 26.2282C89.1824 25.6966 89.4618 25.0495 89.4618 24.2827C89.4618 23.5158 89.1802 22.8688 88.6192 22.3372Z" fill="#01A8E2"/>
<path d="M111.371 33.8226C110.656 32.3303 109.697 31.1996 108.496 30.4262C107.294 29.655 105.949 29.2672 104.461 29.2672C103.417 29.2672 102.533 29.4371 101.805 29.7791C101.077 30.1212 100.48 30.5547 100.012 31.0776C99.5438 31.6026 99.1669 32.1473 98.8875 32.7137H98.7467V23.3305C98.7467 22.995 98.4759 22.7227 98.1424 22.7227H94.1134C93.7798 22.7227 93.5068 22.995 93.5068 23.3305V48.1578C93.5068 48.6611 93.9119 49.0684 94.4123 49.0684H97.7546C98.255 49.0684 98.6601 48.6611 98.6601 48.1578V45.9748H98.8702C99.1409 46.5391 99.5157 47.0859 99.9966 47.611C100.477 48.136 101.084 48.5652 101.816 48.9007C102.548 49.2362 103.419 49.404 104.426 49.404C105.96 49.404 107.333 49.0096 108.54 48.2188C109.746 47.4301 110.699 46.2864 111.397 44.7875C112.094 43.2908 112.443 41.4695 112.443 39.3236C112.443 37.1777 112.086 35.3062 111.371 33.8161M106.579 42.3802C106.257 43.2581 105.784 43.9422 105.165 44.4324C104.543 44.9204 103.774 45.1666 102.862 45.1666C101.95 45.1666 101.225 44.9226 100.586 44.4324C99.9467 43.9422 99.4572 43.2625 99.1171 42.3889C98.777 41.5174 98.6081 40.4913 98.6081 39.3127C98.6081 38.1341 98.7749 37.1123 99.1085 36.2452C99.442 35.3803 99.9294 34.7071 100.568 34.23C101.207 33.7529 101.972 33.5133 102.862 33.5133C103.753 33.5133 104.543 33.7551 105.165 34.2387C105.784 34.7224 106.257 35.3999 106.579 36.2714C106.902 37.145 107.062 38.158 107.062 39.3127C107.062 40.4673 106.902 41.5022 106.579 42.3802Z" fill="#01A8E2"/>
<path d="M132.884 40.6743C133.324 40.6743 133.679 40.317 133.679 39.8747V39.2081C133.679 37.5807 133.447 36.1471 132.984 34.901C132.52 33.6592 131.87 32.62 131.032 31.7899C130.194 30.9599 129.219 30.3303 128.106 29.9076C126.99 29.4828 125.786 29.2715 124.484 29.2715C122.595 29.2715 120.951 29.6985 119.543 30.5525C118.137 31.4065 117.045 32.5917 116.272 34.1058C115.499 35.6199 115.113 37.3868 115.113 39.402C115.113 41.4172 115.503 43.2167 116.283 44.7243C117.063 46.2341 118.17 47.4018 119.606 48.2253C121.04 49.051 122.749 49.4627 124.731 49.4627C126.254 49.4627 127.612 49.2296 128.801 48.7634C129.99 48.2972 130.982 47.6436 131.773 46.8005C132.332 46.2057 132.769 45.5369 133.086 44.7984C133.291 44.3191 132.982 43.7766 132.471 43.7003L129.236 43.2319C128.912 43.184 128.589 43.3452 128.433 43.6372C128.27 43.9356 128.071 44.2014 127.835 44.4302C127.478 44.7788 127.044 45.0424 126.533 45.2254C126.024 45.4084 125.459 45.4999 124.837 45.4999C123.923 45.4999 123.124 45.3038 122.437 44.9073C121.75 44.513 121.222 43.9313 120.845 43.1644C120.823 43.1208 120.804 43.0773 120.784 43.0337C120.769 43.001 120.754 42.9683 120.741 42.9335C120.717 42.8768 120.693 42.818 120.672 42.7592C120.654 42.7134 120.637 42.6655 120.62 42.6176C120.602 42.5718 120.587 42.5217 120.572 42.4738C120.557 42.4259 120.542 42.3758 120.529 42.3256C120.388 41.8267 120.308 41.2756 120.288 40.6721H132.884V40.6743ZM120.334 37.1972C120.338 37.158 120.342 37.1188 120.349 37.0818C120.351 37.0556 120.355 37.0295 120.36 37.0033C120.366 36.9489 120.377 36.8944 120.386 36.8421C120.392 36.8029 120.401 36.7615 120.407 36.7223C120.44 36.5654 120.477 36.4129 120.52 36.2648C120.535 36.2169 120.548 36.1711 120.563 36.1232C120.594 36.0295 120.628 35.9336 120.663 35.8421C120.7 35.7485 120.739 35.6548 120.782 35.5633C121.116 34.8443 121.599 34.2779 122.231 33.8661C122.864 33.4544 123.631 33.2474 124.534 33.2474C125.437 33.2474 126.195 33.45 126.81 33.8574C127.426 34.2648 127.891 34.8378 128.208 35.5807C128.229 35.6308 128.249 35.6809 128.268 35.731C128.281 35.7615 128.292 35.792 128.303 35.8225C128.322 35.877 128.342 35.9315 128.359 35.9859C128.377 36.0382 128.394 36.0905 128.409 36.145C128.424 36.1907 128.437 36.2386 128.448 36.2866C128.459 36.328 128.47 36.3715 128.48 36.4129C128.554 36.7092 128.606 37.0208 128.641 37.3519H120.31C120.314 37.2996 120.321 37.2495 120.327 37.1994" fill="#01A8E2"/>
<path d="M154.74 34.008C154.036 32.4982 153.068 31.3327 151.831 30.507C150.594 29.6813 149.156 29.2695 147.514 29.2695C146.342 29.2695 145.381 29.4612 144.631 29.8447C143.879 30.2281 143.284 30.6791 142.837 31.1976C142.393 31.7161 142.04 32.1932 141.783 32.6289H141.501V29.6813C141.501 29.6094 141.442 29.5527 141.373 29.5527H138.605C138.533 29.5527 138.477 29.6094 138.477 29.6813V56.0968C138.477 56.2994 138.642 56.465 138.843 56.465H141.109C141.384 56.465 141.605 56.2406 141.605 55.9661V46.0687H141.798C142.066 46.5175 142.428 47.0055 142.881 47.5371C143.331 48.0665 143.936 48.524 144.692 48.9074C145.448 49.2909 146.394 49.4826 147.531 49.4826C149.173 49.4826 150.612 49.0665 151.849 48.2364C153.083 47.4064 154.052 46.2321 154.749 44.718C155.447 43.2038 155.795 41.413 155.795 39.3521C155.795 37.2911 155.444 35.5221 154.74 34.0123M151.97 43.0971C151.541 44.206 150.915 45.0774 150.088 45.7158C149.262 46.3519 148.251 46.67 147.055 46.67C145.859 46.67 144.88 46.3606 144.048 45.7419C143.217 45.1232 142.586 44.2626 142.159 43.1603C141.733 42.0579 141.518 40.7812 141.518 39.3325C141.518 37.8837 141.733 36.6136 142.159 35.5308C142.588 34.4459 143.21 33.6006 144.033 32.9928C144.852 32.3849 145.861 32.0821 147.057 32.0821C148.253 32.0821 149.282 32.3936 150.107 33.0189C150.932 33.6442 151.558 34.5003 151.981 35.5918C152.403 36.6833 152.613 37.9295 152.613 39.3325C152.613 40.7355 152.399 41.9904 151.972 43.0993" fill="white"/>
<path d="M174.327 32.6379C173.859 31.749 173.25 31.0606 172.507 30.5769C171.764 30.0933 170.969 29.7556 170.124 29.5595C169.28 29.3656 168.483 29.2676 167.733 29.2676C166.617 29.2676 165.537 29.4353 164.488 29.7708C163.44 30.1063 162.51 30.6379 161.7 31.3634C160.983 32.0061 160.427 32.8339 160.032 33.8426C159.95 34.0518 160.071 34.2849 160.288 34.3394L162.61 34.9472C162.788 34.9929 162.972 34.9036 163.046 34.7359C163.217 34.3372 163.47 33.9559 163.804 33.5921C164.22 33.1368 164.759 32.7664 165.422 32.4788C166.082 32.1891 166.877 32.0453 167.805 32.0453C168.732 32.0453 169.462 32.1956 170.072 32.4963C170.681 32.7969 171.143 33.2305 171.454 33.7969C171.764 34.3633 171.92 35.0409 171.92 35.8295V35.9537C171.92 36.4373 171.747 36.775 171.402 36.9711C171.056 37.165 170.523 37.3044 169.802 37.3872C169.08 37.47 168.127 37.5876 166.945 37.7423C166.03 37.86 165.125 38.019 164.228 38.2194C163.331 38.4199 162.517 38.7227 161.785 39.1301C161.053 39.5375 160.466 40.0887 160.026 40.7837C159.586 41.4786 159.367 42.3871 159.367 43.5069C159.367 44.7923 159.662 45.8838 160.256 46.7792C160.847 47.6746 161.644 48.3543 162.647 48.8118C163.65 49.2715 164.772 49.5024 166.015 49.5024C167.129 49.5024 168.071 49.3412 168.846 49.0144C169.62 48.6898 170.246 48.2867 170.727 47.8031C171.208 47.3194 171.558 46.8489 171.782 46.3892H171.957V48.4763C171.957 48.8074 172.223 49.0754 172.553 49.0754H174.437C174.766 49.0754 175.033 48.8074 175.033 48.4763V36.0779C175.033 34.6749 174.799 33.5289 174.329 32.6379M171.916 41.947C171.916 42.7487 171.71 43.5156 171.301 44.2454C170.891 44.9775 170.287 45.57 169.49 46.0232C168.693 46.4763 167.703 46.7029 166.518 46.7029C165.732 46.7029 165.041 46.5874 164.443 46.3587C163.845 46.1299 163.373 45.7879 163.028 45.3326C162.682 44.8794 162.508 44.3217 162.508 43.6616C162.508 42.9187 162.708 42.3305 163.106 41.8947C163.505 41.459 164.031 41.1257 164.687 40.8948C165.344 40.6638 166.048 40.5026 166.797 40.4089C167.161 40.361 167.603 40.3065 168.125 40.2412C168.647 40.1758 169.174 40.0974 169.706 40.0015C170.239 39.9079 170.709 39.8011 171.112 39.6835C171.517 39.5658 171.782 39.4373 171.912 39.2957V41.947H171.916Z" fill="white"/>
<path d="M193.306 40.2584C192.457 39.3804 191.14 38.729 189.359 38.3042L186.387 37.5961C185.298 37.3369 184.49 36.9883 183.961 36.5526C183.433 36.1169 183.17 35.533 183.17 34.8032C183.17 33.9775 183.547 33.2934 184.303 32.7509C185.059 32.2085 186.023 31.9383 187.195 31.9383C188.439 31.9383 189.385 32.2368 190.035 32.8315C190.546 33.2999 190.923 33.8206 191.161 34.3958C191.276 34.6681 191.558 34.8271 191.846 34.7683L193.548 34.4219C193.908 34.3478 194.12 33.9731 194.001 33.6224C193.756 32.9034 193.408 32.2542 192.953 31.6747C192.361 30.9209 191.584 30.3305 190.624 29.9057C189.662 29.4809 188.514 29.2695 187.178 29.2695C185.841 29.2695 184.563 29.5114 183.487 29.995C182.408 30.4787 181.561 31.1475 180.946 32.0015C180.331 32.8555 180.023 33.8424 180.023 34.9622C180.023 36.3413 180.456 37.4763 181.325 38.3674C182.191 39.2584 183.511 39.9098 185.28 40.3216L188.497 41.0993C189.435 41.3106 190.148 41.6418 190.633 42.0884C191.118 42.5372 191.361 43.1036 191.361 43.7877C191.361 44.6003 190.96 45.2997 190.156 45.8835C189.353 46.4674 188.278 46.7593 186.931 46.7593C185.724 46.7593 184.734 46.4979 183.968 45.9728C183.344 45.548 182.893 44.9337 182.614 44.1319C182.497 43.7964 182.152 43.596 181.804 43.6635L180.188 43.9685C179.774 44.047 179.514 44.4653 179.627 44.8748C179.865 45.7223 180.248 46.4565 180.775 47.0796C181.455 47.8813 182.321 48.4848 183.378 48.8922C184.433 49.2996 185.629 49.5022 186.966 49.5022C188.465 49.5022 189.788 49.2516 190.93 48.7506C192.073 48.2495 192.966 47.5567 193.611 46.6744C194.257 45.7898 194.577 44.7703 194.577 43.6156C194.577 42.2605 194.153 41.1429 193.304 40.2649" fill="white"/>
<path d="M212.248 40.6762C212.138 40.5324 212.019 40.393 211.889 40.2601C211.038 39.3821 209.723 38.7307 207.94 38.3059L204.97 37.5979C204.539 37.4955 204.154 37.38 203.811 37.2493C203.285 37.051 202.863 36.8179 202.544 36.5543C202.016 36.1186 201.754 35.5347 201.754 34.8049C201.754 33.9792 202.13 33.2951 202.889 32.7527C203.645 32.2102 204.608 31.94 205.78 31.94C207.022 31.94 207.968 32.2385 208.62 32.8333C209.19 33.354 209.591 33.94 209.822 34.5936C209.881 34.7548 210.043 34.8507 210.21 34.8158L211.183 34.6175L212.424 34.3648C212.619 34.3256 212.738 34.1274 212.684 33.9356C212.515 33.3496 212.279 32.8071 211.975 32.3082C211.841 32.0882 211.696 31.8769 211.538 31.6764C210.947 30.9226 210.169 30.3322 209.209 29.9096C208.248 29.4848 207.1 29.2734 205.763 29.2734C204.426 29.2734 203.148 29.5153 202.072 29.9989C200.993 30.4826 200.146 31.1514 199.531 32.0054C198.916 32.8594 198.608 33.8463 198.608 34.9661C198.608 36.3452 199.042 37.4802 199.91 38.3691C200.103 38.5652 200.315 38.7503 200.551 38.9246C200.85 39.1447 201.186 39.3473 201.556 39.5281C202.215 39.8527 202.984 40.1185 203.868 40.3233L206.729 41.0161L207.084 41.1011C208.022 41.3124 208.735 41.6435 209.22 42.0901C209.679 42.5128 209.92 43.04 209.948 43.6696C209.948 43.7088 209.95 43.748 209.95 43.7873C209.95 44.5999 209.549 45.2992 208.746 45.8831C207.942 46.4669 206.868 46.7589 205.52 46.7589C204.314 46.7589 203.326 46.4974 202.559 45.9724C201.909 45.528 201.446 44.8787 201.171 44.0247C201.082 43.7524 200.809 43.5847 200.53 43.6369L198.617 43.9986C198.299 44.0596 198.093 44.3755 198.173 44.6914C198.405 45.6173 198.803 46.4103 199.369 47.0769C200.049 47.8787 200.915 48.4821 201.97 48.8895C203.025 49.2969 204.221 49.4996 205.557 49.4996C207.058 49.4996 208.38 49.249 209.521 48.7479C210.665 48.2469 211.557 47.5541 212.203 46.6717C212.848 45.7872 213.171 44.7676 213.171 43.613C213.171 42.4583 212.866 41.4867 212.255 40.6784" fill="white"/>
<path d="M218.628 46.5419V47.897H217.883V44.3633H218.908C219.384 44.3633 219.739 44.4504 219.967 44.6247C220.196 44.799 220.311 45.0648 220.311 45.4221C220.311 45.629 220.255 45.8142 220.14 45.9776C220.025 46.1388 219.865 46.2674 219.657 46.3589C220.186 47.1541 220.53 47.666 220.69 47.8991H219.863L219.025 46.5441H218.628V46.5419ZM218.628 45.9319H218.869C219.105 45.9319 219.278 45.8927 219.391 45.8142C219.503 45.7358 219.56 45.6116 219.56 45.4417C219.56 45.2718 219.503 45.1541 219.389 45.0844C219.274 45.0147 219.096 44.9776 218.856 44.9776H218.63V45.9319H218.628Z" fill="white"/>
<path d="M219.17 49.2603C218.338 49.2603 217.556 48.9357 216.969 48.3431C216.382 47.7527 216.057 46.9663 216.057 46.1297C216.057 45.2931 216.38 44.5088 216.969 43.9162C217.556 43.3258 218.338 42.999 219.17 42.999C220.002 42.999 220.781 43.3236 221.371 43.9162C221.958 44.5066 222.283 45.2931 222.283 46.1297C222.283 46.9663 221.96 47.7505 221.371 48.3431C220.784 48.9335 220.002 49.2603 219.17 49.2603ZM219.17 43.4696C217.71 43.4696 216.525 44.6635 216.525 46.1297C216.525 47.5959 217.712 48.7897 219.17 48.7897C220.628 48.7897 221.815 47.5959 221.815 46.1297C221.815 44.6635 220.628 43.4696 219.17 43.4696Z" fill="white"/>
<path d="M79.964 13.457C79.3207 13.457 78.7055 13.6444 78.1834 13.9821C77.6614 14.3154 77.2368 14.799 76.9661 15.3894C76.6801 16.0103 76.3942 16.6378 76.1039 17.2739C75.101 19.4547 74.0699 21.7074 73.0562 23.9143C70.8792 28.6528 68.8257 33.132 67.2401 36.6046L67.1123 36.89C66.9629 37.219 66.8069 37.5589 66.6336 37.9401C66.5903 38.0316 66.5491 38.1253 66.5058 38.2255L66.0596 39.2037C66.0314 39.2734 65.9751 39.317 65.9145 39.3388C65.8538 39.317 65.7975 39.2734 65.7672 39.2037L65.3231 38.2255C65.2798 38.1253 65.2365 38.0316 65.1953 37.9401C65.0198 37.5589 64.866 37.219 64.7144 36.89L64.5866 36.6046C63.001 33.132 60.9475 28.6528 58.7705 23.9143C57.759 21.7074 56.7257 19.4547 55.7228 17.2739C55.4347 16.6378 55.1466 16.0103 54.8607 15.3894C54.5921 14.799 54.1653 14.3176 53.6433 13.9821C53.1213 13.6444 52.5104 13.457 51.8627 13.457H48.3601C48.3601 14.1803 48.5204 14.8905 48.8258 15.5441L53.8123 26.1147C55.8831 30.5067 57.9539 34.8988 60.0247 39.293C60.0724 39.3954 60.12 39.4956 60.1677 39.598C61.5692 42.5696 62.9707 45.5413 64.3722 48.5194C64.4393 48.661 64.5238 48.7917 64.6234 48.9028C64.6559 48.9399 64.6906 48.9791 64.7252 49.0139C65.035 49.3211 65.4531 49.4976 65.921 49.4976C66.469 49.4976 66.952 49.2514 67.2661 48.8331C67.3419 48.7351 67.4026 48.6327 67.4589 48.5194C68.8604 45.5413 70.2619 42.5696 71.6634 39.598C71.7089 39.4956 71.7587 39.3954 71.8063 39.293C73.8793 34.8966 75.9502 30.5067 78.0188 26.1147L83.0052 15.5441C83.3107 14.8905 83.471 14.1825 83.471 13.457H79.9683H79.964Z" fill="#01A8E2"/>
<path d="M37.5807 29.7469C22.8943 51.4218 8.88159 28.6206 8.88159 28.6206L10.0145 27.6402C14.9338 32.5529 23.7586 37.8012 33.0621 26.0498L37.5785 29.7469H37.5807Z" fill="#01A8E2"/>
<path d="M28.9711 22.6991L22.1326 28.6205L15.3223 23.0476L22.1629 17.124L28.9711 22.6991Z" fill="#01A8E2"/>
</g>
</svg>
